<?xml version="1.0" standalone="no"?>
<!DOCTYPE svg PUBLIC "-//W3C//DTD SVG 20010904//EN"
 "http://www.w3.org/TR/2001/REC-SVG-20010904/DTD/svg10.dtd">
<svg version="1.0" xmlns="http://www.w3.org/2000/svg"
 width="1269.000000pt" height="751.000000pt" viewBox="0 0 1269.000000 751.000000"
 preserveAspectRatio="xMidYMid meet">

<g transform="translate(0.000000,751.000000) scale(0.100000,-0.100000)"
fill="#000000" stroke="none">
<path d="M6249 6685 c-729 -100 -1309 -595 -1460 -1245 -30 -127 -37 -376 -14
-511 51 -310 200 -589 431 -809 101 -96 153 -136 163 -124 5 5 158 284 341
619 183 336 346 629 362 653 48 70 43 77 -124 159 -199 97 -198 94 -51 263 46
54 95 102 109 109 18 8 215 11 695 11 728 0 731 0 745 -54 3 -13 3 -33 0 -44
-4 -11 -150 -263 -325 -559 -1049 -1775 -1531 -2594 -1531 -2598 0 -3 300 -4
666 -3 l667 3 369 585 c202 322 410 650 462 730 361 560 457 848 443 1334 -4
156 -10 210 -30 296 -150 634 -713 1100 -1437 1190 -113 13 -362 11 -481 -5z"/>
<path d="M8003 1885 c-63 -32 -97 -80 -117 -165 -20 -83 -20 -137 0 -175 15
-29 14 -31 -8 -45 -43 -27 -101 -93 -121 -139 -14 -31 -21 -67 -21 -112 0 -57
4 -74 30 -115 86 -140 257 -162 402 -52 l66 50 51 -57 51 -58 59 55 58 54 -34
40 c-65 74 -64 64 -11 150 26 44 60 100 75 127 l28 47 -85 0 -85 0 -38 -65
c-20 -36 -41 -65 -45 -65 -10 0 -77 73 -78 84 0 5 24 35 54 66 78 82 99 129
100 220 1 64 -3 80 -23 109 -35 49 -91 71 -182 71 -61 0 -85 -5 -126 -25z
m171 -136 c48 -38 26 -109 -53 -163 -23 -16 -43 -27 -44 -25 -2 2 -15 19 -31
38 -24 29 -26 40 -20 75 8 53 20 75 47 86 37 15 73 11 101 -11z m-110 -423
c36 -40 66 -78 66 -84 0 -22 -76 -63 -128 -69 -47 -5 -53 -3 -81 25 -53 52
-36 136 35 183 16 10 32 19 36 19 3 0 36 -33 72 -74z"/>
<path d="M6770 1865 c0 -2 -16 -117 -35 -255 -19 -138 -35 -253 -35 -255 0 -3
124 -5 275 -5 l275 0 -6 -42 c-4 -24 -10 -61 -13 -83 l-7 -40 -274 -5 -275 -5
-7 -40 c-4 -22 -7 -50 -7 -62 l-1 -23 373 0 c349 0 374 1 403 19 19 11 36 33
43 53 6 18 31 182 56 363 25 182 48 342 51 358 l6 27 -411 0 c-226 0 -411 -2
-411 -5z m530 -145 c0 -30 -30 -221 -36 -231 -5 -9 -267 -13 -276 -4 -2 3 1
40 7 82 7 43 16 99 19 126 l7 47 140 0 c132 0 139 -1 139 -20z"/>
<path d="M8711 1633 c-18 -131 -35 -248 -38 -260 l-5 -23 277 0 277 0 -6 -37
c-3 -21 -8 -59 -12 -85 l-6 -48 -273 0 -273 0 -6 -27 c-3 -16 -8 -45 -12 -65
l-6 -38 373 0 c356 0 376 1 407 20 18 11 36 30 41 43 7 17 111 722 111 750 0
4 -184 7 -408 7 l-408 0 -33 -237z m561 102 c4 -4 -11 -126 -27 -222 l-6 -33
-139 0 c-127 0 -140 2 -140 18 0 9 7 68 17 130 l16 112 137 0 c75 0 139 -2
142 -5z"/>
<path d="M3216 1848 c-6 -20 -97 -711 -96 -735 0 -12 12 -31 26 -42 26 -20 37
-21 428 -21 l402 0 49 363 c27 199 48 373 48 387 -1 13 -11 32 -23 42 -21 17
-53 18 -426 18 -315 0 -405 -3 -408 -12z m584 -126 c0 -4 -18 -125 -40 -270
-22 -144 -40 -264 -40 -267 0 -3 -75 -5 -166 -5 l-166 0 6 38 c5 32 66 502 66
509 0 2 77 3 170 3 94 0 170 -3 170 -8z"/>
<path d="M4298 1837 c12 -13 22 -34 22 -48 0 -13 -24 -185 -53 -381 l-53 -358
122 0 121 0 33 243 c18 133 36 245 39 249 3 4 68 -106 144 -243 l139 -250 136
3 136 3 53 380 c29 209 52 390 53 403 0 22 -2 22 -113 22 l-113 0 -32 -242
c-18 -134 -32 -247 -32 -251 1 -30 -36 26 -158 243 l-139 245 -164 3 -163 3
22 -24z"/>
<path d="M5423 1842 c10 -10 17 -34 16 -53 0 -19 -24 -191 -52 -384 l-52 -350
384 -3 c211 -1 385 -1 386 0 1 2 5 31 8 66 l7 62 -240 0 c-131 0 -241 3 -243
8 -3 5 11 142 23 220 0 1 101 2 225 2 l225 0 0 43 c0 23 3 52 6 65 l6 22 -216
0 c-199 0 -216 1 -215 18 0 9 6 51 12 92 l12 75 233 3 232 2 0 43 c0 23 3 52
6 65 l6 22 -392 0 c-380 0 -393 -1 -377 -18z"/>
</g>
</svg>
