<?xml version="1.0" encoding="UTF-8"?>
<svg version="1.1" viewBox="0 0 1600 944" width="1280" height="1280" xmlns="http://www.w3.org/2000/svg">
<path transform="translate(825 101)" d="m0 0c1.04 0.00432 2.07 0.00864 3.14 0.0131 2.94 0.0186 5.89 0.0492 8.83 0.0885 0.893 0.0107 1.79 0.0215 2.71 0.0325 6.14 0.12 6.14 0.12 7.26 1.24 1.95 0.334 3.91 0.613 5.87 0.867 1.21 0.164 2.43 0.327 3.68 0.496 2.55 0.336 5.11 0.67 7.66 1 7.2 0.976 13.9 2.33 20.8 4.64 1.28 0.385 2.56 0.766 3.84 1.14 20 6.07 38 14.2 55.6 25.3 2.39 1.54 2.39 1.54 4.51 2.57v2c1.11 0.4 1.11 0.4 2.24 0.809 7.39 3.19 13.4 9.56 19.3 14.9 1.61 1.47 3.25 2.91 4.91 4.33 4.34 3.72 7.82 7.37 11.1 12 2.01 2.57 4.38 4.48 6.96 6.46 1.78 1.67 2.47 3.23 3.52 5.42 1.22 1.75 2.48 3.48 3.75 5.19 6.58 9 11.7 17.6 16.2 27.8 0.895 1.92 1.79 3.83 2.69 5.75 3.42 7.56 5.63 15.2 7.57 23.3 0.531 2.13 1.13 4.24 1.77 6.34 1.07 4.02 1.6 7.91 2.04 12 0.114 4.69 0.114 4.69 1.94 8.62 0.0986 1.62 0.128 3.25 0.129 4.87 0.00315 1.04 0.0063 2.08 0.00955 3.14-0.00304 1.69-0.00304 1.69-0.00613 3.42 0.00144 1.73 0.00144 1.73 0.0029 3.49 6.82e-4 2.44-0.00117 4.88-0.00534 7.31-0.00535 3.75-5.57e-5 7.49 0.00635 11.2-6.61e-4 2.36-0.00194 4.72-0.00391 7.09 0.00202 1.13 0.00405 2.26 0.00613 3.42-0.00315 1.04-0.0063 2.08-0.00955 3.14-0.00119 1.38-0.00119 1.38-0.00241 2.78-0.127 2.09-0.127 2.09-1.13 3.09-0.452 3.83-0.817 7.66-1.16 11.5-1.29 13.4-4.74 27-9.84 39.5-0.397 1.04-0.794 2.08-1.2 3.14-10.9 28.1-26.3 53.8-42.7 79.1-7.52 11.6-15 23.3-22.4 35-1.21 1.9-2.42 3.8-3.64 5.7-0.619 0.969-1.24 1.94-1.88 2.94-0.559 0.875-1.12 1.75-1.7 2.65-1.94 3.09-3.75 6.24-5.53 9.44h-2c-0.336 1.24-0.336 1.24-0.68 2.5-1.62 4.3-3.9 7.77-6.45 11.6-1 1.52-2.01 3.04-3.01 4.57-0.491 0.745-0.983 1.49-1.49 2.26-1.85 2.84-3.62 5.72-5.38 8.61-3.08 5.06-6.27 10-9.5 15-3.99 6.13-7.87 12.3-11.7 18.5-2.26 3.68-4.59 7.32-6.91 11-2.28 3.59-4.53 7.2-6.78 10.8-3.35 5.37-6.72 10.7-10.1 16.1-0.374 0.589-0.747 1.18-1.13 1.78-1.5 2.33-2.9 4.38-4.87 6.34-2.84 0.246-2.84 0.246-6.54 0.241-0.68 0.00171-1.36 0.00342-2.06 0.00518-2.29 0.00331-4.58-0.00773-6.86-0.0186-1.64-5.64e-4 -3.27-2.48e-4 -4.91 8.85e-4 -4.45 5.75e-4 -8.9-0.0112-13.4-0.0251-4.65-0.0125-9.29-0.0137-13.9-0.0161-8.8-0.00622-17.6-0.0226-26.4-0.0427-10-0.0223-20-0.0333-30.1-0.0434-20.6-0.0209-41.2-0.0561-61.9-0.101-1.08-3.29-1.12-3.76 0.52-7.07 0.752-1.21 1.52-2.42 2.29-3.61 0.837-1.34 1.67-2.68 2.51-4.02 0.66-1.05 0.66-1.05 1.33-2.12 2.25-3.62 4.39-7.3 6.53-11 0.845-1.44 1.69-2.88 2.54-4.32 0.59-1 0.59-1 1.19-2.03 3.54-6.01 7.16-12 10.8-17.9 3.57-5.79 7.03-11.6 10.5-17.5 2.73-4.66 5.49-9.31 8.28-13.9 3.26-5.42 6.49-10.9 9.69-16.3 3.57-6.08 7.17-12.1 10.8-18.2 9.44-15.6 9.44-15.6 18.4-31.4 2.67-4.86 5.61-9.54 8.53-14.3 2.44-3.98 4.79-8 7.14-12 6.9-11.9 13.9-23.7 21-35.5 0.698-1.16 0.698-1.16 1.41-2.35 1.02-1.69 2.03-3.38 3.05-5.07 0.527-0.875 1.05-1.75 1.6-2.65 0.475-0.789 0.951-1.58 1.44-2.39 2.64-4.45 5.12-8.99 7.57-13.5 2.03-3.73 4.13-7.32 6.54-10.8 3.3-4.84 6.09-9.93 8.92-15.1 2.48-4.45 5.09-8.73 8.04-12.9 1.66-2.56 2.93-5.26 4.29-7.99 1.42-2.52 2.9-5.01 4.38-7.5 0.428-0.724 0.857-1.45 1.3-2.19 0.937-1.58 1.87-3.17 2.81-4.75 1.6-2.7 3.19-5.4 4.78-8.1 9.43-16 9.43-16 14.2-23.6 2.87-4.62 5.5-9.33 8.06-14.1 2.07-3.7 4.36-7.25 6.69-10.8 1.41-2.26 2.72-4.53 4.01-6.86 3.53-6.41 7.3-12.7 11.1-19 1.1-1.84 2.2-3.69 3.29-5.53 0.984-1.66 1.97-3.31 2.95-4.97 1.95-3.32 2.66-5.11 2.69-8.94 0.0142-0.771 0.0284-1.54 0.043-2.34-0.269-2.67-0.582-4.15-2.23-6.29-4.37-0.997-8.59-1.13-13.1-1.13-0.687-0.00156-1.37-0.00312-2.08-0.00473-2.29-0.00397-4.58-8.36e-4 -6.87 0.00232-1.65-0.00136-3.29-0.00314-4.94-0.00531-4.46-0.00455-8.93-0.00279-13.4 3.79e-4 -4.67 0.00253-9.35 1.83e-4 -14-0.00139-7.85-0.00182-15.7 5.76e-4 -23.5 0.00534-9.07 0.00544-18.1 0.00368-27.2-0.00183-7.79-0.00454-15.6-0.00518-23.4-0.00256-4.65 0.00156-9.3 0.00177-14-0.00154-4.37-0.00289-8.75-8.79e-4 -13.1 0.00489-1.6 0.00132-3.21 9.45e-4 -4.81-0.00126-2.19-0.00274-4.38 7.03e-4 -6.57 0.00568-1.84 5.66e-4 -1.84 5.66e-4 -3.71 0.00114-3.2 0.12-6.2 0.521-9.35 1.13-0.33 0.99-0.66 1.98-1 3-1.64 1.69-3.31 3.35-5 5-0.825 0.99-1.65 1.98-2.5 3-6.35 7.62-6.35 7.62-10.5 9-1.22 2.5-1.22 2.5-2 5h-2c-0.473 1.38-0.902 2.78-1.31 4.19-0.244 0.777-0.487 1.55-0.738 2.36-0.188 2.68-0.188 2.68 2.05 5.05 3.27 2.62 6.52 4.2 10.4 5.72 5.8 2.41 11.4 5 17 7.94 0.636 0.329 1.27 0.658 1.93 0.997 3.14 1.68 4.68 2.73 6.7 5.75 0.511 3.25 0.797 5.77-1.06 8.64-1.02 1.23-2.04 2.47-3.07 3.7-4.2 5.99-6.89 13-9.87 19.7h-2c-0.206 0.763-0.413 1.53-0.625 2.31-2.57 6.88-6.4 13.1-10.2 19.4-3.02 4.97-5.6 10.1-8.15 15.3-2.49 5.09-5.19 10-7.98 15-0.496 0.877-0.992 1.75-1.5 2.66-1.07 1.88-2.14 3.77-3.2 5.65-4.66 8.22-9.31 16.4-13.7 24.8-1.7 3.17-3.45 6.32-5.2 9.46-1.87 3.38-3.72 6.77-5.56 10.2-1.55 2.84-3.1 5.68-4.66 8.52-2.03 3.71-4.03 7.43-6.01 11.2-0.879 1.64-1.76 3.28-2.64 4.91-0.397 0.764-0.793 1.53-1.2 2.32-2.76 5.09-2.76 5.09-5.12 6.31-5.85 0.161-11.8-7.66-15.9-11.5-2.72-2.63-5.39-5.29-8.05-7.98-0.902-0.894-1.8-1.79-2.73-2.71-13.5-13.5-13.5-13.5-13.5-17.7h-2c-1.4-1.69-2.72-3.46-4-5.25-0.701-0.975-1.4-1.95-2.12-2.95-1.5-2.24-2.74-4.36-3.88-6.8l-1.62-3.12c-1.38-2.88-1.38-2.88-1.38-4.88h-2c-3-6.63-3-6.63-3-10h-2c-3.94-9.22-7.68-18.2-10-28-0.254-0.927-0.508-1.85-0.77-2.81-3.68-13.7-4.54-27-4.44-41.1 0.0186-2.54 0.0205-5.07 0.0203-7.61 0.0049-1.61 0.0107-3.23 0.0176-4.84 0.00111-0.757 0.00223-1.51 0.00337-2.29 0.0484-5.25 0.0484-5.25 1.16-6.37 0.333-1.67 0.612-3.35 0.867-5.03 0.164-1.04 0.327-2.08 0.496-3.15 0.336-2.18 0.67-4.36 1-6.55 1.01-6.36 2.36-12.3 4.64-18.3 0.437-1.19 0.874-2.37 1.32-3.6 5.69-14.5 12.8-28 20.7-41.4h2c0.244-0.705 0.487-1.41 0.738-2.14 7.86-17.8 27.2-34.2 42.3-45.9 0.935-0.775 1.87-1.55 2.83-2.35 22.4-18.2 49.7-29.9 77.2-38 1.4-0.425 2.8-0.868 4.19-1.33 7.4-2.37 14.9-3.78 22.6-4.97 0.706-0.111 1.41-0.221 2.14-0.335 14-2.12 28-2.41 42.2-2.35zm-225 176 1 2z" fill="#DB531E"/>
<path transform="translate(405,710)" d="m0 0c13.5-0.0463 27.1-0.0818 40.6-0.104 6.28-0.0105 12.6-0.0246 18.8-0.0473 6.06-0.0217 12.1-0.0337 18.2-0.0389 2.31-0.00371 4.63-0.0109 6.94-0.0217 3.23-0.0144 6.47-0.0165 9.7-0.0156 0.965-0.00719 1.93-0.0144 2.93-0.0218 0.878 0.00275 1.76 0.0055 2.66 0.00833 0.765-0.00184 1.53-0.00369 2.32-0.00559 1.87 0.246 1.87 0.246 3.87 2.25 5.25 8.84 1.05 21.9-0.375 31.6-0.449 3.08-0.893 6.17-1.34 9.25-0.164 1.13-0.164 1.13-0.332 2.29-0.891 6.22-1.63 12.5-2.29 18.7-0.559 5.09-0.559 5.09-1.67 6.19-0.288 2.18-0.516 4.37-0.719 6.55-0.0942 0.986-0.0942 0.986-0.19 1.99-0.201 2.11-0.397 4.22-0.591 6.33-0.195 2.1-0.391 4.2-0.591 6.31-0.182 1.91-0.359 3.83-0.536 5.74-0.373 3.08-0.373 3.08-1.37 6.08-12.9 0.0695-25.9 0.123-38.8 0.155-6.01 0.0157-12 0.0369-18 0.0709-5.8 0.0326-11.6 0.0505-17.4 0.0583-2.21 0.00554-4.42 0.0164-6.63 0.0326-3.1 0.0218-6.2 0.0248-9.29 0.0234-0.914 0.0108-1.83 0.0216-2.77 0.0327-5.11-0.0248-8.7-0.469-13.1-3.37-4.43-6.45-2.75-13-1.69-20.4 0.185-1.39 0.368-2.77 0.55-4.16 0.551-4.15 1.13-8.29 1.71-12.4 0.471-3.37 0.934-6.74 1.4-10.1 1.75-12.8 3.52-25.6 5.32-38.3 0.157-1.13 0.314-2.25 0.476-3.41 0.147-1.04 0.295-2.07 0.446-3.14 0.128-0.906 0.256-1.81 0.387-2.75 0.397-2.3 0.397-2.3 1.4-5.3zm31 17c-1.29 6.43-2.4 12.6-3.06 19.1-0.804 7.8-0.804 7.8-1.94 8.94-0.301 2.11-0.54 4.23-0.754 6.34-0.132 1.31-0.264 2.62-0.4 3.97-0.1 1.03-0.1 1.03-0.203 2.09-0.202 2.07-0.413 4.13-0.625 6.2-0.685 6.82-1.31 13.6-1.02 20.4 1.2 1.43 1.2 1.43 4.69 1.11 1.65-1.59e-4 3.29-0.00586 4.94-0.0159 0.864-0.00141 1.73-0.00283 2.62-0.00429 2.77-0.00562 5.54-0.0182 8.31-0.0309 1.87-0.00501 3.75-0.00958 5.62-0.0137 4.6-0.0111 9.21-0.0283 13.8-0.0488 3.04-15.2 5.52-30.5 7.75-45.8 0.319-2.17 0.638-4.34 0.957-6.51 0.77-5.23 1.53-10.5 2.29-15.7h-43z" fill="#D5511E"/>
<path transform="translate(540,710)" d="m0 0h40c0.99 2.31 1.98 4.62 3 7 1.42 2.69 2.99 5.28 4.56 7.88 0.399 0.675 0.798 1.35 1.21 2.05 2.01 3.63 2.01 3.63 5.23 6.08 0.336 1.67 0.669 3.33 1 5 0.868 1.8 1.81 3.57 2.8 5.31 0.565 0.995 1.13 1.99 1.71 3.01 0.594 1.03 1.19 2.06 1.8 3.12 0.582 1.02 1.16 2.05 1.76 3.1 4.27 8.84 4.27 8.84 10.9 15.5v3c1.49 0.495 1.49 0.495 3 1 0.067-1.19 0.067-1.19 0.135-2.41 0.59-9.35 1.65-18.6 2.91-27.9 0.329-2.43 0.645-4.87 0.961-7.3 0.213-1.59 0.426-3.17 0.641-4.76 0.0907-0.709 0.181-1.42 0.275-2.15 0.852-6.12 2.41-11.4 4.08-17.5h29v2h-2c-0.0258 0.975-0.0516 1.95-0.0781 2.95-0.407 11.1-1.78 22-3.46 32.9-1.01 6.62-1.78 13.2-2.21 19.9-0.246 2.24-0.246 2.24-1.25 3.24-0.35 2.59-0.643 5.16-0.902 7.76-0.17 1.61-0.34 3.22-0.51 4.83-0.263 2.54-0.524 5.09-0.783 7.63-0.251 2.45-0.51 4.9-0.77 7.35-0.111 1.13-0.111 1.13-0.224 2.28-0.459 4.29-1.27 8.08-2.81 12.1-4.55 0.324-9.1 0.558-13.7 0.714-1.55 0.065-3.09 0.154-4.64 0.267-5.16 0.368-9.69 0.411-14.7-0.981-3.87-3.81-5.84-8.06-8-13-0.892-1.62-1.8-3.24-2.73-4.84-0.822-1.51-1.64-3.02-2.46-4.54-3.06-5.63-6.15-11.2-9.34-16.8-0.589-1.03-1.18-2.06-1.78-3.12-1.15-2-2.3-4-3.45-6-2.56-4.48-4.89-8.67-6.24-13.7l-2 1c-0.659 2.08-0.659 2.08-1.06 4.56-0.165 0.897-0.33 1.79-0.5 2.72-0.39 2.42-0.717 4.84-1 7.28-0.438 3.44-0.438 3.44-1.44 4.44-0.35 2.5-0.643 4.99-0.902 7.51-0.17 1.56-0.34 3.12-0.51 4.68-0.263 2.46-0.524 4.92-0.783 7.39-0.251 2.37-0.51 4.75-0.77 7.12-0.074 0.726-0.148 1.45-0.224 2.2-0.0767 0.697-0.153 1.39-0.232 2.11-0.0636 0.603-0.127 1.21-0.193 1.83-0.554 3.11-1.52 6.13-2.39 9.16h-29c-1.13-7.88-1.13-7.88-0.67-11.4 0.097-0.777 0.194-1.55 0.294-2.35 0.111-0.814 0.223-1.63 0.338-2.47 0.165-1.28 0.165-1.28 0.333-2.59 0.233-1.79 0.47-3.58 0.712-5.37 0.371-2.75 0.726-5.5 1.08-8.25 0.228-1.74 0.457-3.48 0.688-5.23 0.107-0.826 0.215-1.65 0.325-2.5 0.785-5.76 0.785-5.76 1.9-6.88 0.348-2.19 0.637-4.39 0.902-6.6 0.17-1.37 0.34-2.75 0.51-4.12 0.262-2.16 0.523-4.33 0.783-6.49 1.65-13.7 1.65-13.7 2.93-18.3 0.958-3.79 1.08-7.08 1-11-0.018-1.23-0.0361-2.45-0.0547-3.72-0.0232-0.918-0.0464-1.84-0.0703-2.78-0.99-0.33-1.98-0.66-3-1v-2z" fill="#DA531E"/>
<path transform="translate(854,709)" d="m0 0h103c-4 28-4 28-5 30-0.28 2.08-0.512 4.16-0.719 6.25-0.128 1.25-0.255 2.5-0.387 3.78-0.13 1.31-0.26 2.62-0.395 3.97-0.257 2.58-0.517 5.17-0.781 7.75-0.114 1.15-0.228 2.3-0.346 3.48-0.373 2.77-0.373 2.77-1.37 4.77-0.339 2.25-0.632 4.51-0.902 6.77-0.17 1.38-0.34 2.76-0.51 4.14-0.263 2.17-0.524 4.34-0.783 6.51-0.251 2.1-0.51 4.19-0.77 6.29-0.151 1.25-0.301 2.51-0.457 3.8-0.967 5.85-2.4 10.2-6.58 14.5-4.58 2.5-9.03 2.27-14.1 2.23-1.36 4.38e-4 -1.36 4.38e-4 -2.75 8.85e-4 -2.99-0.00139-5.98-0.0169-8.98-0.0326-2.08-0.00373-4.16-0.00658-6.23-0.00858-5.46-0.00763-10.9-0.0273-16.4-0.0494-5.58-0.0205-11.2-0.0296-16.7-0.0397-10.9-0.0214-21.9-0.0556-32.8-0.0977-0.694-4.44-1.11-7.97-0.125-12.4 0.275-1.28 0.275-1.28 0.555-2.59 0.57-2.04 0.57-2.04 1.57-3.04 2.12-0.0942 4.24-0.117 6.36-0.114 0.995-2.19e-4 0.995-2.19e-4 2.01-4.43e-4 2.2 6.99e-4 4.4 0.00849 6.61 0.0163 1.52 0.00186 3.05 0.00329 4.57 0.00429 4.02 0.00383 8.03 0.0137 12 0.0247 4.1 0.0102 8.19 0.0148 12.3 0.0198 8.04 0.0107 16.1 0.0283 24.1 0.0488 0.66-6.27 1.32-12.5 2-19-33.2-0.495-33.2-0.495-67-1-0.763-3.81-1.11-5.77-0.73-9.4 0.127-1.21 0.127-1.21 0.256-2.45 0.0947-0.833 0.189-1.67 0.287-2.52 0.0831-0.825 0.166-1.65 0.252-2.5 0.391-3.6 0.861-6.88 1.92-10.4 1.89-7.01 2.15-14.3 2.78-21.5 0.117-1.21 0.233-2.42 0.354-3.66 0.0972-1.09 0.194-2.18 0.295-3.31 0.584-3.25 0.584-3.25 3.58-10.3zm-2 7 1 2zm33 10c-0.99 4.95-1.98 9.9-3 15-0.33 0.66-0.66 1.32-1 2-0.255 2.18-0.457 4.37-0.625 6.56-0.0954 1.18-0.191 2.35-0.289 3.57-0.0284 0.947-0.0567 1.89-0.0859 2.87 1.16 1.38 1.16 1.38 4.33 1.11 1.48-1.59e-4 2.95-0.00585 4.43-0.0159 0.775-0.00141 1.55-0.00283 2.35-0.00429 2.49-0.00562 4.97-0.0182 7.46-0.0309 1.68-0.00501 3.36-0.00958 5.04-0.0137 4.13-0.011 8.26-0.0283 12.4-0.0488 0.483-3.29 0.961-6.58 1.44-9.88 0.135-0.918 0.269-1.84 0.408-2.78 0.132-0.915 0.264-1.83 0.4-2.77 0.181-1.24 0.181-1.24 0.365-2.51 0.552-4.34 0.953-8.71 1.39-13.1h-35zm35 1 1 2zm-73 24 1 2z" fill="#D4511D"/>
<path transform="translate(1102,709)" d="m0 0h103c-3 28-3 28-4 29-0.287 1.98-0.516 3.98-0.719 5.97-0.128 1.21-0.255 2.42-0.387 3.67-0.13 1.27-0.26 2.55-0.395 3.86-0.256 2.51-0.517 5.02-0.781 7.53-0.114 1.12-0.228 2.24-0.346 3.39-0.373 2.58-0.373 2.58-1.37 3.58-0.325 2.41-0.595 4.8-0.832 7.22-0.16 1.51-0.321 3.01-0.482 4.52-0.25 2.37-0.496 4.74-0.73 7.12-1.85 18.6-1.85 18.6-5.96 24.2-5.41 3.98-10.8 4.57-17.3 4.47-1.35 0.00329-1.35 0.00329-2.72 0.00664-2.94 0.0023-5.88-0.0238-8.82-0.0508-2.05-0.00493-4.1-0.00822-6.15-0.00996-4.28-0.00762-8.56-0.0281-12.8-0.0591-5.5-0.0397-11-0.0576-16.5-0.0673-5.24-0.00994-10.5-0.0298-15.7-0.0511-1-0.0034-2.01-0.00679-3.04-0.0103-2.82-0.0115-5.64-0.03-8.47-0.051-0.844-0.00269-1.69-0.00538-2.56-0.00815-5.76-0.0539-5.76-0.0539-6.87-1.17 0.0382-2.11 0.156-4.21 0.312-6.31 0.118-1.73 0.118-1.73 0.238-3.49 0.449-3.2 0.449-3.2 2.45-7.2h68c0.66-6.27 1.32-12.5 2-19-33.2-0.495-33.2-0.495-67-1-0.793-3.96-1.1-5.81-0.61-9.55 0.166-1.31 0.166-1.31 0.335-2.64 0.127-0.933 0.254-1.87 0.385-2.83 0.127-0.978 0.255-1.96 0.386-2.96 0.272-2.07 0.548-4.15 0.828-6.22 0.42-3.12 0.827-6.24 1.23-9.37 0.267-2.02 0.536-4.05 0.805-6.07 0.119-0.913 0.238-1.83 0.36-2.77 1.09-7.98 2.69-15.6 4.28-23.6zm32 17c-2 3.99-2.63 7.28-3.12 11.6-0.0842 0.708-0.168 1.42-0.255 2.15-0.604 5.38-1.15 10.8-0.62 16.2 1.14 1.36 1.14 1.36 4.14 1.11 1.39-1.59e-4 2.78-0.00585 4.17-0.0159 1.1-0.00212 1.1-0.00212 2.22-0.00429 2.34-0.00561 4.69-0.0182 7.03-0.0309 1.59-0.00501 3.17-0.00958 4.76-0.0137 3.89-0.011 7.79-0.0283 11.7-0.0488 1.83-6.62 2.79-13.2 3.62-20 0.454-3.63 0.908-7.26 1.38-11h-35z" fill="#D4511D"/>
<path transform="translate(682,710)" d="m0 0h98c-0.63 5.67-1.29 11.3-2 17h-57c-0.66 3.63-1.32 7.26-2 11l-1 1c-0.495 4.95-0.495 4.95-1 10h54c-0.66 5.94-1.32 11.9-2 18-27.2 0.495-27.2 0.495-55 1-1.74 5.96-1.74 5.96-2.62 11.9-0.0748 0.761-0.15 1.52-0.227 2.3-0.207 3.93-0.148 7.88-0.148 11.8 29.7 0.495 29.7 0.495 60 1-1 14-1 14-2 18h-96c-0.863-5.18-0.835-8.86-0.0391-13.9 0.11-0.745 0.22-1.49 0.333-2.26 0.352-2.37 0.716-4.74 1.08-7.1 0.47-3.11 0.934-6.22 1.4-9.33 0.113-0.747 0.225-1.49 0.341-2.26 0.581-3.9 1.08-7.78 1.42-11.7 0.336-3.79 1.07-7.36 1.95-11.1 0.996-4.69 1.49-9.45 2.07-14.2 0.249-2.03 0.5-4.05 0.754-6.08 0.162-1.33 0.162-1.33 0.326-2.68 0.324-2.2 0.812-4.27 1.36-6.42 0.22-2.25 0.405-4.5 0.562-6.75 0.0838-1.17 0.168-2.34 0.254-3.55 0.0606-0.892 0.121-1.78 0.184-2.7-0.99-0.33-1.98-0.66-3-1v-2zm-3 52 1 3z" fill="#D6511E"/>
<path transform="translate(1028 703)" d="m0 0c0.764 0.0299 1.53 0.0598 2.32 0.0906 5.13 0.318 8.99 1.34 13.6 3.72 1.44 2.19 1.44 2.19 2 4h2c0.213 0.886 0.213 0.886 0.43 1.79 0.486 1.88 1.08 3.74 1.7 5.59 2.33 9.43 0.601 19.3-4.12 27.6-0.474 0.928-0.949 1.86-1.44 2.81-1.88 2.63-3.91 4.35-6.56 6.19h-2c-0.268 0.804-0.536 1.61-0.812 2.44-0.392 0.846-0.784 1.69-1.19 2.56-0.99 0.33-1.98 0.66-3 1 2.18 5.2 4.53 7.76 9 11h2c1.49-2.08 1.49-2.08 2.94-4.69 0.504-0.87 1.01-1.74 1.53-2.64 0.507-0.883 1.01-1.77 1.54-2.68 2.86-4.86 2.86-4.86 4-6 1.56-0.0167 3.13 0.0369 4.69 0.121 0.944 0.0483 1.89 0.0967 2.86 0.146 0.993 0.0561 1.99 0.112 3.01 0.17 1.5 0.0783 1.5 0.0783 3.02 0.158 2.47 0.13 4.94 0.265 7.42 0.404-1 3-1 3-3 5-1.1 2.15-2.15 4.32-3.19 6.5-2.67 5.53-5.66 10.4-9.43 15.3-1.53 2.41-2 4.37-2.38 7.18 0.619 0.227 1.24 0.454 1.88 0.688 2.75 1.7 2.99 3.37 4.12 6.31 1.48 0.495 1.48 0.495 3 1 0.438 3.06 0.609 5.17-1.27 7.73-1.52 1.55-2.98 2.98-4.73 4.27h-2l-2 4c-2.17 0.344-2.17 0.344-5 0-2-1.8-3.61-3.45-5.31-5.5-0.454-0.525-0.909-1.05-1.38-1.59-1.12-1.29-2.22-2.6-3.31-3.91-4.95 1.86-8.3 4.48-12.2 7.99-3.17 2.29-5.88 3.22-9.65 4.26-1.76 0.503-1.76 0.503-3.55 1.02-8.46 1.74-15.7 0.176-23.6-3.27-8.38-5.57-12.9-12.6-16-22-1.05-11.2 2.44-19.1 9-28 0.681-0.928 1.36-1.86 2.06-2.81 2.13-2.41 4.32-4.33 6.94-6.19h2c-0.309-1.46-0.622-2.92-0.938-4.38-0.174-0.812-0.348-1.62-0.527-2.46-0.458-2.19-0.458-2.19-1.54-4.16-0.973-9.92 2.19-21.9 8-30 8.44-9.55 17-11.4 29.1-10.8zm-13.9 22.2c-3.33 4.33-3.91 8.24-4.25 13.6 2.34 3.51 4.5 5.64 8 8 5.97-0.746 10.1-4.76 13.9-9.25 1.57-3.84 1.91-7.66 1.12-11.8-2.17-2.9-3.07-3.02-6.81-3.81-4.57-0.411-8.26 0.298-11.9 3.19zm-15.2 48.6c-3.22 3.8-4.86 7.45-5.31 12.4 0.00395 3.54 0.00395 3.54 1.94 5.81 5.42 3.99 9.1 5.31 15.8 4.39 4.27-1.05 8.24-2.79 11.6-5.64 1.17-1.77 1.17-1.77 1-4-2.69-4.89-6.39-8.82-10.2-12.9-0.546-0.593-1.09-1.19-1.65-1.8-1.36-1.47-2.76-2.9-4.16-4.33-3.07 0-6.78 4.1-9 6z" fill="#D6521E"/>
<path transform="translate(682,710)" d="m0 0h98v2h-98v-2z" fill="#000001"/>
<path transform="translate(540,710)" d="m0 0h40c0.495 0.99 0.495 0.99 1 2h-41v-2z" fill="#000001"/>
<path transform="translate(1052,756)" d="m0 0c6.93 0.33 13.9 0.66 21 1-0.33 0.99-0.66 1.98-1 3l-2-1c-3.17-0.231-6.33-0.394-9.5-0.518-3.65-0.19-5.38-0.406-8.5-2.48z" fill="#000001"/>
<path transform="translate(607,758)" d="m0 0 2 1c-0.33 0.66-0.66 1.32-1 2-0.33-0.99-0.66-1.98-1-3z" fill="#000001"/>
<path transform="translate(1032,268)" d="m0 0 1 4z"/>
</svg>
